# xmcd
#
# Track frame offsets:
#  150
#  25212
#  48318
#  75883
#  92584
#  105613
#  124622
#  152203
#  177485
#  205766
#
# Disc length: 2941 seconds
#
# Revision: 2
# Processed by: cddbd v1.5.1PL2 Copyright (c) Steve Scherf et al.
# Submitted via: Collectorz.com_Music_Collector 6.9
#
DISCID=720b7b0a
DTITLE=Maria Aurigema - Take Me
DYEAR=2004
DGENRE=Blues
TTITLE0=Running
TTITLE1=Miracle Man
TTITLE2=Thinking About You
TTITLE3=Take Me
TTITLE4=Feels Right
TTITLE5=Mama,He Treats Your Daughter Mean
TTITLE6=Love Is Like
TTITLE7=Why,Oh Why?
TTITLE8=Heartache Blues
TTITLE9=Homework Blues
EXTD=
EXTT0=
EXTT1=
EXTT2=
EXTT3=
EXTT4=
EXTT5=
EXTT6=
EXTT7=
EXTT8=
EXTT9=
PLAYORDER=
